# xmcd
#
# Track frame offsets: 
#        150
#        13321
#        26938
#        41902
#        55814
#        69295
#        83382
#        91023
#        101490
#        114117
#        128954
#        137530
#        149430
#        163894
#        177997
#
# Disc length: 2621 seconds
#
# Revision: 1
# Processed by: cddbd v1.5.2PL0 Copyright (c) Steve Scherf et al.
# Submitted via: ExactAudioCopy v0.99pb5
#
DISCID=c60a3b0f
DTITLE=Guz - Mein Name ist GUZ
DYEAR=2008
DGENRE=Blues
TTITLE0=Nachtarbeiter
TTITLE1=Scheisslied
TTITLE2=Einsam
TTITLE3=Primitiv
TTITLE4=Zeltplatz
TTITLE5=Wuerdevoll und alt
TTITLE6=Leserbrief
TTITLE7=King of the jungle
TTITLE8=Going down the river
TTITLE9=Weltraummuell
TTITLE10=I hate everybody
TTITLE11=Kulturfestival
TTITLE12=Second hund
TTITLE13=Martina
TTITLE14=You're gonna miss me
EXTD=YEAR: 2008
EXTT0=
EXTT1=
EXTT2=
EXTT3=
EXTT4=
EXTT5=
EXTT6=
EXTT7=
EXTT8=
EXTT9=
EXTT10=
EXTT11=
EXTT12=
EXTT13=
EXTT14=
PLAYORDER=
